<svg xmlns="http://www.w3.org/2000/svg" viewBox="0 0 693.78 693.46"><defs><style>.cls-1{stroke:#000;stroke-miterlimit:10;}</style></defs><g id="Layer_2" data-name="Layer 2"><g id="Layer_1-2" data-name="Layer 1"><path class="cls-1" d="M692.84,320.91a345,345,0,0,0-52.72-159.16,1.67,1.67,0,0,0-.18-.28,346.7,346.7,0,0,0-41.53-53.15c-3.71-3.91-7.53-7.75-11.43-11.48a347.51,347.51,0,0,0-52.86-41.66h-.29V55A344.58,344.58,0,0,0,379.73,2l-5.34-.46Q360.92.49,347.16.5q-13.08,0-25.93,1L314.6,2a345,345,0,0,0-99.66,24.59,346,346,0,0,0-53.15,27.57l-1.58,1a348.56,348.56,0,0,0-51.56,40.43q-6.54,6.18-12.73,12.71a347.15,347.15,0,0,0-40.42,51.4l-1.11,1.75a345,345,0,0,0-52,149.77l-.86,9.67q-1,13-1,26.25,0,13.59,1,26.91l.82,9A344.8,344.8,0,0,0,27,480.36a346.13,346.13,0,0,0,27.78,53.15l.71,1.1a347.23,347.23,0,0,0,41,52c3.93,4.12,8,8.16,12.12,12.07a346.76,346.76,0,0,0,52.59,41.08l.55.35a344.94,344.94,0,0,0,159.44,52.72l1.29.09h49.29c.87-.05,1.73-.12,2.58-.19a345.62,345.62,0,0,0,53.15-8.31A345.34,345.34,0,0,0,533.09,639.8l.74-.47A348.42,348.42,0,0,0,587,597.49q5.53-5.29,10.82-10.84a349.18,349.18,0,0,0,41.74-53.14c.2-.31.39-.62.58-.94a344.6,344.6,0,0,0,52.68-158.5q.29-3.69.48-7.43V327.69C693.17,325.42,693,323.16,692.84,320.91Zm-54.66,53.16c-3.34,23.85-5,36-9.87,53.14a291,291,0,0,1-41.33,87c-4.63,6.63-9.54,13.09-14.69,19.31A294,294,0,0,1,533.83,572q-9.27,7.69-19.17,14.63a290.16,290.16,0,0,1-140.27,51.49q-13.45,1.25-27.23,1.26c-8.73,0-17.39-.39-25.93-1.13a290.84,290.84,0,0,1-141.57-51.62q-9.19-6.43-17.87-13.55A295.71,295.71,0,0,1,122,533.51q-7-8.46-13.38-17.45a290.38,290.38,0,0,1-52.5-142s-1.22-20.75-1.22-26.91.19-12.27.57-18.32l.58-7.93a292.92,292.92,0,0,1,9.76-53.15,289.6,289.6,0,0,1,20.81-53.14,293.6,293.6,0,0,1,22-36.36q6.13-8.62,12.85-16.79a294.64,294.64,0,0,1,40.29-40.24q8.22-6.75,16.94-12.91a290.6,290.6,0,0,1,142.5-52.26c4.64-.4,9.32-.7,14-.88q5.92-.26,11.92-.25t11.93.25q7.7.28,15.3,1A291.05,291.05,0,0,1,515.6,108.32q9.39,6.65,18.23,14a295.11,295.11,0,0,1,39,39.16q7.44,9,14.15,18.66a290.55,290.55,0,0,1,51.27,140.78S641.52,350.22,638.18,374.07Z"/><path class="cls-1" d="M427.54,516.35v56.06a237,237,0,0,1-53.15,12.33,242.82,242.82,0,0,1-53.16.14,238.23,238.23,0,0,1-53.14-12V517a185.87,185.87,0,0,0,53.14,15.69l7.31.86c6.12.61,12.34.92,18.62.92s12.51-.31,18.63-.92l8.6-1A185.25,185.25,0,0,0,427.54,516.35Z"/><path class="cls-1" d="M586.27,347.16a241.6,241.6,0,0,1-1.5,26.91,237.87,237.87,0,0,1-12.24,53.14h-56a185.85,185.85,0,0,0,16-53.14l1.32-11.86c.39-5,.6-10,.6-15s-.21-10.08-.6-15l-1.23-11.21a185.47,185.47,0,0,0-15.8-53.15,187.58,187.58,0,0,0-36.12-51.9l-1.23-1.24A187.17,187.17,0,0,0,427.54,178a185.25,185.25,0,0,0-53.15-16.11l-2.89-.4a189.38,189.38,0,0,0-48.67,0l-1.6.21a186.83,186.83,0,0,0-106.29,52.87l-.07.07a187,187,0,0,0-53.08,105.81c0,.17,0,.32-.06.48a187.86,187.86,0,0,0-1.83,26.25,190.2,190.2,0,0,0,1.89,26.74v.17h0a185.83,185.83,0,0,0,16,53.14h-56a238.43,238.43,0,0,1-12.25-53.14c-.36-3.36-.67-6.73-.9-10.11-.48-11.77-.58-23.06,0-33.59q.33-4.77.84-9.46a237.88,237.88,0,0,1,38.64-106.29q6.41-9.59,13.66-18.48a239.26,239.26,0,0,1,34.75-34.67q8.84-7.2,18.4-13.54a237.66,237.66,0,0,1,106.29-38.48q7.35-.8,14.85-1.13,5.51-.25,11.08-.26c3.72,0,7.42.09,11.08.26,5.43.25,10.83.68,16.15,1.27a238.24,238.24,0,0,1,106.29,39.19c5.9,4,11.62,8.22,17.11,12.69a240,240,0,0,1,36,36.27q6.54,8.14,12.36,16.88a238.65,238.65,0,0,1,40.08,132.54Z"/><path class="cls-1" d="M478.71,320.91h-55a79.9,79.9,0,0,0-49.34-49.13,78.71,78.71,0,0,0-19.07-4c-2.26-.19-4.55-.3-6.86-.3s-4.6.11-6.86.3a79.08,79.08,0,0,0-20.37,4.47,79.9,79.9,0,0,0-48,48.68H215.61A134.31,134.31,0,0,1,321.23,215.55c1.75-.35,3.5-.66,5.28-.93a135,135,0,0,1,41.31,0c2.22.33,4.41.73,6.57,1.17A134.28,134.28,0,0,1,478.71,320.91Z"/><path class="cls-1" d="M480.68,374.07v104.4l-1.87,1.89H427.54V454.55a133.63,133.63,0,0,1-53.15,24c-3.73.77-11.38,1.83-11.38,1.83-10.15,1.64-20.77,1.34-31.7,0q-5.1-.58-10.08-1.58a134.3,134.3,0,0,1-105.5-104.71h57.68a79.73,79.73,0,0,0,150.1,0Z"/></g></g></svg>