<?xml version="1.0" encoding="utf-8"?>
<!-- Generator: Adobe Illustrator 24.1.2, SVG Export Plug-In . SVG Version: 6.00 Build 0)  -->
<svg version="1.1" id="Layer_1" xmlns="http://www.w3.org/2000/svg" xmlns:xlink="http://www.w3.org/1999/xlink" x="0px" y="0px"
	 viewBox="0 0 693.8 693.5" style="enable-background:new 0 0 693.8 693.5;" xml:space="preserve">
<style type="text/css">
	.st0{fill:#FFFFFF;stroke:#FFFFFF;stroke-miterlimit:10;}
</style>
<g id="Layer_2_1_">
	<g id="Layer_1-2">
		<path class="st0" d="M692.8,320.9c-4.2-56.6-22.3-111.2-52.7-159.2c-0.1-0.1-0.1-0.2-0.2-0.3c-12.1-19-26-36.8-41.5-53.2
			c-3.7-3.9-7.5-7.8-11.4-11.5c-16.2-15.6-33.9-29.5-52.9-41.7h-0.3V55C487.4,25.3,434.6,7.1,379.7,2l-5.3-0.5c-9-0.7-18.1-1-27.2-1
			c-8.7,0-17.4,0.3-25.9,1L314.6,2c-34.3,3.2-67.9,11.5-99.7,24.6c-18.5,7.6-36.3,16.9-53.1,27.6l-1.6,1
			c-18.4,11.8-35.7,25.4-51.6,40.4c-4.4,4.1-8.6,8.4-12.7,12.7c-15.1,15.8-28.6,33-40.4,51.4l-1.1,1.8
			c-28.7,45.2-46.5,96.5-52,149.8l-0.9,9.7c-0.7,8.7-1,17.4-1,26.3c0,9.1,0.3,18,1,26.9l0.8,9c3.4,33.5,11.7,66.2,24.6,97.3
			c7.7,18.5,17,36.3,27.8,53.2l0.7,1.1c12,18.6,25.7,36,41,52c3.9,4.1,8,8.2,12.1,12.1c16.2,15.4,33.8,29.1,52.6,41.1l0.6,0.3
			c48,30.4,102.8,48.5,159.4,52.7l1.3,0.1h49.3c0.9,0,1.7-0.1,2.6-0.2c17.9-1.4,35.7-4.2,53.1-8.3c37.4-8.9,73.1-24,105.6-44.6
			l0.7-0.5c19-12.2,36.8-26.2,53.2-41.8c3.7-3.5,7.3-7.1,10.8-10.8c15.6-16.3,29.6-34.1,41.7-53.1c0.2-0.3,0.4-0.6,0.6-0.9
			c30.3-47.7,48.4-102.1,52.7-158.5c0.2-2.5,0.4-4.9,0.5-7.4v-38.9C693.2,325.4,693,323.2,692.8,320.9z M638.2,374.1
			c-3.3,23.9-5,36-9.9,53.1c-8.8,31.1-22.8,60.5-41.3,87c-4.6,6.6-9.5,13.1-14.7,19.3c-11.6,14-24.5,26.9-38.5,38.5
			c-6.2,5.1-12.6,10-19.2,14.6c-41.5,29.1-89.8,46.9-140.3,51.5c-9,0.8-18,1.3-27.2,1.3c-8.7,0-17.4-0.4-25.9-1.1
			c-50.9-4.5-99.7-22.3-141.6-51.6c-6.1-4.3-12.1-8.8-17.9-13.5c-14.5-11.9-27.8-25.1-39.8-39.6c-4.7-5.6-9.1-11.5-13.4-17.5
			c-29.7-41.9-47.9-90.9-52.5-142c0,0-1.2-20.8-1.2-26.9s0.2-12.3,0.6-18.3l0.6-7.9c1.6-18,4.9-35.8,9.8-53.1
			c5.2-18.4,12.1-36.2,20.8-53.1c6.4-12.6,13.8-24.8,22-36.4c4.1-5.7,8.4-11.3,12.8-16.8c12.1-14.7,25.6-28.2,40.3-40.2
			c5.5-4.5,11.1-8.8,16.9-12.9c42-29.7,91.2-47.8,142.5-52.3c4.6-0.4,9.3-0.7,14-0.9c3.9-0.2,7.9-0.3,11.9-0.3s8,0.1,11.9,0.3
			c5.1,0.2,10.2,0.5,15.3,1c50.8,4.7,99.6,22.7,141.2,52.2c6.3,4.4,12.3,9.1,18.2,14c14.2,11.8,27.3,24.9,39,39.2
			c5,6,9.7,12.2,14.2,18.7c29.1,41.6,46.8,90.2,51.3,140.8C638.3,320.9,641.5,350.2,638.2,374.1L638.2,374.1z"/>
		<path class="st0" d="M427.5,516.3v56.1c-17.2,6.1-35,10.3-53.1,12.3c-17.7,2-35.5,2-53.2,0.1c-18.1-2-35.9-6-53.1-12V517
			c16.8,7.9,34.7,13.1,53.1,15.7l7.3,0.9c6.1,0.6,12.3,0.9,18.6,0.9s12.5-0.3,18.6-0.9l8.6-1C392.8,529.9,410.7,524.4,427.5,516.3z"
			/>
		<path class="st0" d="M586.3,347.2c0,9-0.5,18-1.5,26.9c-2,18.1-6.1,36-12.2,53.1h-56c8-16.8,13.4-34.7,16-53.1l1.3-11.9
			c0.4-5,0.6-10,0.6-15s-0.2-10.1-0.6-15l-1.2-11.2c-2.6-18.4-7.9-36.3-15.8-53.1c-9-19.2-21.2-36.8-36.1-51.9l-1.2-1.2
			c-15.1-15.1-32.7-27.5-51.9-36.7c-16.8-8-34.7-13.4-53.1-16.1l-2.9-0.4c-16.2-2.1-32.5-2.1-48.7,0l-1.6,0.2
			c-40.2,5.6-77.6,24.2-106.3,52.9l-0.1,0.1c-28.7,28.6-47.3,65.7-53.1,105.8c0,0.2,0,0.3-0.1,0.5c-1.2,8.7-1.8,17.5-1.8,26.3
			c0,8.9,0.6,17.9,1.9,26.7v0.2l0,0c2.6,18.4,8,36.3,16,53.1h-56c-6.1-17.2-10.2-35-12.3-53.1c-0.4-3.4-0.7-6.7-0.9-10.1
			c-0.5-11.8-0.6-23.1,0-33.6c0.2-3.2,0.5-6.3,0.8-9.5c4.1-38,17.4-74.5,38.6-106.3c4.3-6.4,8.8-12.6,13.7-18.5
			c10.4-12.7,22-24.3,34.8-34.7c5.9-4.8,12-9.3,18.4-13.5c31.8-21.2,68.3-34.4,106.3-38.5c4.9-0.5,9.9-0.9,14.9-1.1
			c3.7-0.2,7.4-0.3,11.1-0.3c3.7,0,7.4,0.1,11.1,0.3c5.4,0.3,10.8,0.7,16.1,1.3c38.1,4.3,74.5,17.8,106.3,39.2
			c5.9,4,11.6,8.2,17.1,12.7c13.3,10.8,25.3,22.9,36,36.3c4.4,5.4,8.5,11.1,12.4,16.9C572.3,253.9,586.3,300,586.3,347.2
			L586.3,347.2z"/>
		<path class="st0" d="M478.7,320.9h-55c-8.1-23.1-26.2-41.2-49.3-49.1c-6.2-2.1-12.6-3.5-19.1-4c-2.3-0.2-4.5-0.3-6.9-0.3
			s-4.6,0.1-6.9,0.3c-7,0.6-13.8,2.1-20.4,4.5c-22.5,8.2-40.1,26.1-48,48.7h-57.6c10.7-53.2,52.3-94.8,105.6-105.4
			c1.8-0.4,3.5-0.7,5.3-0.9c13.7-2.1,27.6-2.1,41.3,0c2.2,0.3,4.4,0.7,6.6,1.2C427.1,226.8,468.1,268.1,478.7,320.9z"/>
		<path class="st0" d="M480.7,374.1v104.4l-1.9,1.9h-51.3v-25.8c-15.7,11.8-33.9,20-53.1,24c-3.7,0.8-11.4,1.8-11.4,1.8
			c-10.1,1.6-20.8,1.3-31.7,0c-3.4-0.4-6.8-0.9-10.1-1.6c-53-10.5-94.6-51.8-105.5-104.7h57.7c14.9,41.4,60.5,63,102,48.1
			c22.4-8,40.1-25.7,48.1-48.1L480.7,374.1z"/>
	</g>
</g>
</svg>
